<svg xmlns="http://www.w3.org/2000/svg" width="409.114" height="304.586" viewBox="0 0 409.114 304.586">
  <g id="Group_373" data-name="Group 373" transform="translate(3640.525 -2554.914)">
    <path id="Union_49" data-name="Union 49" d="M41.517,274.215a21.1,21.1,0,0,1-7.826-1.451,50.745,50.745,0,0,1-14.315-8.521A48.506,48.506,0,0,1,9.2,252.07,62.576,62.576,0,0,1,2.821,236.7,94.987,94.987,0,0,1-.161,218.565,149.734,149.734,0,0,1-.134,198.08c.455-6.971,1.348-14.518,2.656-22.431a407.392,407.392,0,0,1,11.7-49.078,246.141,246.141,0,0,1,20.35-48.236c4-7.274,8.383-14.409,13.021-21.208,4.462-6.542,9.185-12.806,14.037-18.62,9.381-11.239,19.233-20.76,28.493-27.532a78.1,78.1,0,0,1,13.158-7.941c4.219-1.945,9.1-3.581,18.459-3.394s10.347,1.3,18.988,4.14a178.824,178.824,0,0,1,22.73,9.476c6.629,3.261,17.716,12.356,27.5,12.348,9.2-.006,17.1-9.1,23.7-12.348a178.831,178.831,0,0,1,22.731-9.476C246.03.94,249.442-.173,258.8-.359s11.814,1.449,16.033,3.394A78.1,78.1,0,0,1,288,10.976c9.259,6.773,19.112,16.293,28.492,27.532,4.852,5.813,9.574,12.078,14.037,18.62,4.637,6.8,9.018,13.934,13.021,21.208a246.144,246.144,0,0,1,20.35,48.236,407.393,407.393,0,0,1,11.7,49.078c1.307,7.913,2.2,15.46,2.656,22.431a149.73,149.73,0,0,1,.027,20.484,94.985,94.985,0,0,1-2.983,18.134,62.576,62.576,0,0,1-6.383,15.371,48.505,48.505,0,0,1-10.172,12.173,50.744,50.744,0,0,1-14.315,8.521,21.116,21.116,0,0,1-7.829,1.451,33.162,33.162,0,0,1-11.342-2.241,74.9,74.9,0,0,1-12.242-5.954c-8.432-4.952-17.379-11.61-26.85-18.659-8.718-6.488-17.732-13.2-27-19.055-32.342-20.442-35.05-31.788-70.1-31.788s-37.756,11.345-70.1,31.788c-9.268,5.858-18.281,12.565-27,19.052-9.472,7.049-18.419,13.707-26.853,18.66a74.937,74.937,0,0,1-12.243,5.955,33.176,33.176,0,0,1-11.343,2.243Z" transform="translate(-3625.024 2570.285)" fill="#328aae" stroke="#328aae" stroke-width="30"/>
    <path id="Union_49_-_Outline" data-name="Union 49 - Outline" d="M336.593,279.215h0a38.032,38.032,0,0,1-13.049-2.541,79.758,79.758,0,0,1-13.068-6.342c-8.668-5.09-17.72-11.827-27.3-18.959-8.644-6.433-17.58-13.083-26.688-18.84C247.736,227,241.244,222.219,235.516,218c-14.894-10.973-22.37-16.481-46.459-16.481S157.492,207.025,142.6,218c-5.728,4.22-12.221,9-20.97,14.534-9.108,5.757-18.043,12.406-26.684,18.836-9.584,7.132-18.637,13.869-27.305,18.96a79.8,79.8,0,0,1-13.068,6.343,38.045,38.045,0,0,1-13.049,2.543,26.091,26.091,0,0,1-9.676-1.8,55.73,55.73,0,0,1-15.719-9.368A53.5,53.5,0,0,1,4.9,254.62a67.563,67.563,0,0,1-6.9-16.6,99.978,99.978,0,0,1-3.148-19.093,154.732,154.732,0,0,1,.025-21.173c.465-7.134,1.378-14.845,2.712-22.92a412.356,412.356,0,0,1,11.838-49.69,251.152,251.152,0,0,1,20.761-49.22c4.079-7.413,8.544-14.685,13.271-21.615,4.553-6.675,9.374-13.069,14.329-19.006,9.637-11.547,19.8-21.355,29.379-28.364a83.065,83.065,0,0,1,14.017-8.446c4.357-2.009,9.688-3.868,19.12-3.868l1.533.016c7.985.159,10.576.963,16.176,2.927l4.274,1.462A183.784,183.784,0,0,1,165.662,8.77c1.914.941,4.181,2.33,6.67,3.867,5.747,3.55,12.9,7.968,18.614,7.968,4.554,0,9.279-3.474,13.848-6.831a53.255,53.255,0,0,1,7.658-5A183.8,183.8,0,0,1,235.828-.969c8.745-2.875,12.737-4.187,22.877-4.389l1.513-.016c8.522,0,11.966,1.628,15.612,3.352l1.1.516A83.064,83.064,0,0,1,290.947,6.94c9.583,7.009,19.742,16.817,29.379,28.364,4.955,5.937,9.776,12.331,14.329,19.006,4.727,6.93,9.192,14.2,13.271,21.615a251.152,251.152,0,0,1,20.761,49.22,412.354,412.354,0,0,1,11.838,49.69c1.334,8.074,2.246,15.786,2.712,22.92a154.715,154.715,0,0,1,.025,21.173,99.978,99.978,0,0,1-3.148,19.093,67.565,67.565,0,0,1-6.9,16.6,53.492,53.492,0,0,1-11.223,13.422,55.728,55.728,0,0,1-15.719,9.368A26.091,26.091,0,0,1,336.593,279.215ZM120.3,4.626c-7.878,0-11.7,1.457-14.933,2.949a73.145,73.145,0,0,0-12.3,7.437c-8.936,6.536-18.482,15.769-27.606,26.7C60.716,47.4,56.092,53.536,51.72,59.945c-4.548,6.668-8.845,13.666-12.771,20.8A241.133,241.133,0,0,0,19.011,128,402.439,402.439,0,0,0,7.455,176.465c-1.281,7.752-2.155,15.134-2.6,21.941a144.749,144.749,0,0,0-.03,19.795,90,90,0,0,0,2.818,17.174A57.59,57.59,0,0,0,13.5,249.519a43.518,43.518,0,0,0,9.121,10.924,45.76,45.76,0,0,0,12.911,7.675c4.317,1.714,9.364,1.427,15.62-.845a70.083,70.083,0,0,0,11.418-5.567c8.2-4.815,17.04-11.394,26.4-18.359,8.791-6.542,17.882-13.307,27.311-19.267,8.448-5.339,14.788-10.01,20.382-14.132,15.6-11.492,25.014-18.429,52.389-18.429s36.791,6.937,52.391,18.43c5.593,4.121,11.933,8.792,20.38,14.131,9.43,5.96,18.521,12.726,27.313,19.269,9.361,6.967,18.2,13.546,26.4,18.36a70.039,70.039,0,0,0,11.416,5.566c6.261,2.273,11.309,2.555,15.62.843a45.76,45.76,0,0,0,12.911-7.675,43.517,43.517,0,0,0,9.121-10.924,57.593,57.593,0,0,0,5.862-14.144,90,90,0,0,0,2.818-17.174,144.731,144.731,0,0,0-.03-19.795c-.444-6.808-1.319-14.19-2.6-21.941A402.429,402.429,0,0,0,359.1,128a241.136,241.136,0,0,0-19.938-47.253c-3.926-7.135-8.223-14.133-12.771-20.8-4.372-6.409-9-12.544-13.745-18.233-9.124-10.931-18.669-20.164-27.605-26.7a73.146,73.146,0,0,0-12.3-7.436l-1.188-.557c-3.156-1.492-5.06-2.392-11.337-2.392L258.9,4.64c-8.641.172-11.491,1.109-19.953,3.891a173.859,173.859,0,0,0-22.085,9.212,46.953,46.953,0,0,0-6.155,4.093c-5.314,3.9-11.928,8.764-19.751,8.769-8.567,0-17.062-5.247-23.887-9.462-2.177-1.345-4.151-2.576-5.825-3.4a173.85,173.85,0,0,0-22.085-9.212L134.7,7c-4.759-1.669-6.363-2.232-13.066-2.365Z" transform="translate(-3625.024 2570.285)" fill="#fff"/>
    <path id="Path_429" data-name="Path 429" d="M-3471.606,2460.083c-1.12-1.312-35.17-55.7-35.17-55.7a6.65,6.65,0,0,1-.658-2.885,15.431,15.431,0,0,1,.658-3.775s36.323-56.883,36.389-56.9a5.248,5.248,0,0,1,2.625,1.173,5.269,5.269,0,0,1,2.085,3.313,8.95,8.95,0,0,1,0,3.957s-32.239,52.269-32.327,52.238,32.327,50.389,32.327,50.389a14.438,14.438,0,0,1,0,5.653c-.673,2.351-.842,2.917-2.324,3.552S-3470.486,2461.395-3471.606,2460.083Z" transform="translate(8.438 275)" fill="#fff"/>
    <path id="Path_430" data-name="Path 430" d="M-3501.2,2460.083c1.12-1.312,35.17-55.7,35.17-55.7a6.65,6.65,0,0,0,.658-2.885,15.431,15.431,0,0,0-.658-3.775s-36.323-56.883-36.389-56.9a5.248,5.248,0,0,0-2.625,1.173,5.269,5.269,0,0,0-2.085,3.313,8.95,8.95,0,0,0,0,3.957s32.239,52.269,32.327,52.238-32.327,50.389-32.327,50.389a14.438,14.438,0,0,0,0,5.653c.673,2.351.842,2.917,2.324,3.552S-3502.324,2461.395-3501.2,2460.083Z" transform="translate(92.438 275)" fill="#fff"/>
  </g>
</svg>
